<svg viewBox="-21 -26 681.334 681" xmlns="http://www.w3.org/2000/svg">
    <path d="M355.617 628.535a287.72 287.72 0 01-180.539-63.297 97.101 97.101 0 01-26.652-33.633A94.403 94.403 0 01140 503.891a10.487 10.487 0 010-3.008l4.438-30.91c.304-2.243.664-4.754 1.07-7.38l1.117-8.011a10.66 10.66 0 1121.129 2.844l-1.152 8.226c-.36 2.52-.711 4.93-1.008 7.227l-4.266 29.508a73.146 73.146 0 006.317 19.945 75.776 75.776 0 0020.796 26.254c97.684 78.281 236.61 78.281 334.29 0a75.58 75.58 0 0028.175-54.578c-.449-3.047-.953-6.684-1.535-10.926l-.723-5.18c-.234-1.46-.484-3.007-.613-4.644-.402-2.477-.902-5.985-1.45-9.79l-1.284-8.91c-.86-5.828 3.164-11.242 8.988-12.101 5.824-.863 11.246 3.16 12.106 8.988l1.3 9.008c.535 3.73 1.067 7.152 1.516 10.348.168 1.824.324 2.773.488 3.734l.79 5.64c.64 4.638 1.171 8.524 1.648 11.727.078.52.117 1.055.12 1.586a97.148 97.148 0 01-36.19 71.758 287.771 287.771 0 01-180.45 63.29zm0 0M550.863 410.84c-5.886 0-10.656-4.77-10.656-10.656a338.263 338.263 0 0114.309-92.508c-.422-1.16-.649-1.801-.836-2.461a10.512 10.512 0 010-6.395 214.347 214.347 0 0010.328-66.035c1.305-115.36-90.977-210.023-206.328-211.66-115.39 1.61-207.707 96.3-206.387 211.691v1.504c.05.414.078.836.09 1.254a208.095 208.095 0 005.254 45.336 10.664 10.664 0 013.281 20.258c-2.207 1.062-4.52 2.133-6.715 3.004a10.672 10.672 0 01-8.746-.223 10.662 10.662 0 01-5.633-6.695 229.008 229.008 0 01-8.742-60.996c-.098-1.063-.117-2.227-.117-3.39C128.633 105.687 230.5 1.425 357.68-.196 484.832 1.43 586.684 105.66 585.379 232.816a235.915 235.915 0 01-10.274 69.16l.063.2c.371 1.008.594 1.644.8 2.328.571 1.976.555 4.086-.054 6.05a318.72 318.72 0 00-14.39 89.66c-.02 5.876-4.786 10.626-10.66 10.626zm0 0M162.648 410.95a10.627 10.627 0 01-7.343-2.946 10.65 10.65 0 01-2.668-11.762 10.66 10.66 0 0110.023-6.719c5.883 0 10.656 4.77 10.656 10.66v.692c-.308 5.656-4.992 10.082-10.656 10.074zm0 0"/>
    <path d="M162.543 406.176c-5.809 0-10.547-4.645-10.664-10.446a317.605 317.605 0 00-13.438-82.082c-.629-2.14-.57-4.43.172-6.535 1-2.91 2.008-5.71 3.016-8.39a10.66 10.66 0 0118.336-3.207c2.437 3 3.058 7.082 1.625 10.671a607.452 607.452 0 00-1.711 4.7 337.486 337.486 0 0113.355 84.425 10.676 10.676 0 01-2.976 7.598 10.684 10.684 0 01-7.48 3.266zm0 0"/>
    <path d="M151.594 313.117a10.665 10.665 0 01-9.903-6.719c-.554-1.386-.992-2.773-1.394-4.168-.406-1.394-1.016-3.335-1.504-5.175a10.658 10.658 0 016.184-12.57c1.918-.801 3.941-1.72 5.859-2.622a10.657 10.657 0 0111.105 18.043 10.656 10.656 0 01-6.39 12.442 10.51 10.51 0 01-3.957.77zm0 0"/>
    <path d="M155.398 302.168a10.66 10.66 0 01-4.266-20.445c142.493-61.825 341.7-80.266 420.731-85.352a10.679 10.679 0 0110.254 15.395 10.69 10.69 0 01-8.89 5.925c-77.91 5.008-274.188 23.184-413.598 83.637a10.69 10.69 0 01-4.23.84zm0 0"/>
    <path d="M52.938 373.574a15.95 15.95 0 01-10.766-4.168 15.756 15.756 0 01-4.176-17.683 232.025 232.025 0 0137.309-60.633 254.769 254.769 0 01-65.125-16.137A15.983 15.983 0 01.023 259.227a15.986 15.986 0 0111.739-14.59c11.062-3.196 34.035-9.742 61.972-16.696a166.195 166.195 0 0168.84-2.812 10.656 10.656 0 018.149 6.875c1.3 3.582.582 7.582-1.871 10.488a10.668 10.668 0 01-10.028 3.63 144.827 144.827 0 00-59.898 2.491 1717.137 1717.137 0 00-45.422 11.992 218.328 218.328 0 0064.453 10.407 10.653 10.653 0 019.902 6.543 10.655 10.655 0 01-2.296 11.652 263.986 263.986 0 00-41.317 56.227 420.418 420.418 0 0078.113-53.032c.188-.18.485-.437.801-.71a10.656 10.656 0 0111.57-2.227 10.657 10.657 0 016.555 9.793v.11c0 3.28-1.52 6.386-4.117 8.405-25.922 25.305-76.11 53.094-96.547 63.957a16.289 16.289 0 01-7.684 1.844zm4.945-14.183v.082zm-40.145-94.274h-.117zm.13-10.055l.152.067zm0 0M150.527 513.121c-.52 0-1.039-.031-1.554-.105a10.655 10.655 0 01-9.02-12.086l4.445-30.914c.301-2.239.66-4.758 1.067-7.38l1.12-8.015a10.64 10.64 0 016.497-8.523 10.655 10.655 0 0110.621 1.43 10.651 10.651 0 014.008 9.94l-1.152 8.231c-.364 2.516-.711 4.922-1.012 7.227l-4.465 31.082c-.77 5.234-5.266 9.12-10.555 9.113zm0 0M561.586 504.125a10.66 10.66 0 01-10.535-9.082 572.58 572.58 0 01-1.68-11.961l-.723-5.18c-.234-1.46-.484-3.007-.613-4.644-.402-2.477-.902-5.985-1.45-9.79l-1.284-8.91c-.86-5.828 3.164-11.242 8.988-12.101 5.824-.863 11.246 3.16 12.106 8.988l1.3 9.008c.535 3.73 1.067 7.152 1.516 10.348.168 1.824.324 2.773.488 3.734l.79 5.64c.64 4.637 1.171 8.524 1.648 11.727.875 5.817-3.133 11.243-8.953 12.114-.528.078-1.063.113-1.598.109zm0 0"/>
    <path d="M147.48 495.664l4.262-9.789-4.426 9.7a44.279 44.279 0 01-2.546-1.16c-19.59-8.24-38.97-18.036-51.676-24.712a32.203 32.203 0 01-16.184-20.625 31.836 31.836 0 014.578-25.586 573.55 573.55 0 0053.582-106.691c1.184-3.356 2.41-6.79 3.637-10.02 2.164-5.39 8.25-8.058 13.68-5.992 5.433 2.066 8.207 8.102 6.242 13.57-1.16 3.086-2.332 6.399-3.492 9.649a600.523 600.523 0 01-55.965 111.488 10.267 10.267 0 00-1.516 8.39 10.645 10.645 0 005.457 6.919c12.336 6.523 31.13 15.992 50.621 24.273l2.024.914zm0 0M563.93 496.535a10.656 10.656 0 01-10.48-8.598 10.653 10.653 0 016.429-11.933 542.023 542.023 0 0052.168-25.121 10.352 10.352 0 005.129-6.613c.746-2.985.199-6.149-1.504-8.707a734.368 734.368 0 01-59.942-124.524c-1.96-5.539.93-11.621 6.457-13.601 5.536-1.981 11.625.89 13.622 6.414a704.638 704.638 0 0057.656 120.02 32.454 32.454 0 014.328 25.581 31.775 31.775 0 01-15.594 20.125 569.911 569.911 0 01-54.281 26.14 10.671 10.671 0 01-3.988.817zm0 0M260.129 379.098c-23.86 0-43.203-19.34-43.203-43.203 0-23.86 19.344-43.204 43.203-43.204 23.863 0 43.203 19.344 43.203 43.204-.023 23.851-19.352 43.18-43.203 43.203zm0-65.09c-12.086 0-21.883 9.8-21.883 21.887 0 12.085 9.797 21.886 21.883 21.886 12.086 0 21.887-9.8 21.887-21.886.004-12.098-9.79-21.907-21.887-21.915zm0 0M437.078 383.363c-41.187-.047-74.57-33.43-74.613-74.617v-10.664c0-11.773 9.543-21.32 21.32-21.32h117.258c11.773 0 21.316 9.547 21.316 21.32-.05 47.078-38.203 85.227-85.28 85.281zm-53.293-85.281v10.664c.031 29.418 23.875 53.258 53.293 53.297 35.309-.04 63.926-28.652 63.965-63.961zm0 0"/>
    <path d="M370.664 311.195c-1.992 0-3.945-.558-5.633-1.605l-83.25-51.926c-5.008-3.117-6.535-9.695-3.422-14.703 3.114-5 9.696-6.531 14.7-3.418l83.25 51.914a10.649 10.649 0 014.617 11.984 10.667 10.667 0 01-10.262 7.723zm0 0M511.07 303.84a10.66 10.66 0 01-6.394-19.188l63.21-47.433a10.664 10.664 0 0110.587-1.278 10.66 10.66 0 016.39 8.528 10.647 10.647 0 01-4.187 9.804l-63.211 47.434a10.63 10.63 0 01-6.395 2.133zm0 0M276.543 488.895c-9.95 0-20.723-.48-32.324-1.438-68.781-5.738-105.684-21.023-112.813-46.723-8.234-29.66 27.457-56.308 31.532-59.293a10.652 10.652 0 0114.34 1.747 10.65 10.65 0 01-.571 14.437c-1.969 2.047-6 7.898-4.777 11.648 1.43 4.32 10.449 10.184 31.53 13.688a79.217 79.217 0 0068.056-16.828 65.947 65.947 0 0138.718-15.856c24.239.852 45.438 16.563 53.293 39.508a36.654 36.654 0 01-5.191 33.75c-12.457 16.895-39.918 25.36-81.793 25.36zm-122.102-67.051a18.466 18.466 0 00-2.484 13.25c2.004 7.172 15.176 24.582 94.027 31.144 68.223 5.66 88.829-7.031 95.055-15.11a15.087 15.087 0 002.566-13.858l-.125-.364a37.496 37.496 0 00-33.246-25.304 47.846 47.846 0 00-26.449 12 100.39 100.39 0 01-83.777 20.39c-23.79-3.953-38.778-11.23-45.567-22.148zm0 0"/>
    <path d="M431.93 488.895c-41.871 0-69.285-8.528-81.82-25.403a36.657 36.657 0 01-5.192-33.746c7.871-22.98 29.121-38.703 53.395-39.508a65.952 65.952 0 0138.664 15.852 79.184 79.184 0 0068.05 16.828c21.086-3.504 30.102-9.367 31.532-13.684 1.226-3.75-2.805-9.597-4.84-11.726a10.664 10.664 0 01-.574-14.512c3.644-4.238 9.937-4.941 14.433-1.617 4.09 2.95 39.758 29.687 31.527 59.332-7.164 25.797-44.09 41.05-112.832 46.785-11.597.93-22.378 1.399-32.343 1.399zm-67.043-51.668a15.078 15.078 0 002.566 13.855c6.215 8.082 26.809 20.777 95.055 15.117 78.879-6.566 92.023-23.972 94.023-31.152a18.424 18.424 0 00-2.484-13.246c-6.785 10.914-21.777 18.195-45.516 22.152a100.517 100.517 0 01-83.773-20.39 47.798 47.798 0 00-26.445-12.004 37.498 37.498 0 00-33.301 25.304zm0 0"/>
    <path d="M370.125 530.996H343.211c-25.578.188-47.742.332-61.215-13.043a40.814 40.814 0 01-10.8-30.191 62.985 62.985 0 011.066-11.617 10.666 10.666 0 016.937-8.094 10.652 10.652 0 0110.477 1.96 10.648 10.648 0 013.543 10.055 41 41 0 00-.649 7.696c0 10.61 3.387 13.968 4.5 15.066 7.18 7.129 26.078 7 46.047 6.848h18.602c19.996.144 38.867.281 46.047-6.848 1.066-1.07 4.5-4.457 4.5-15.066a41.583 41.583 0 00-.649-7.813c-1.039-5.765 2.774-11.293 8.535-12.367 5.758-1.078 11.313 2.703 12.418 8.457a62.755 62.755 0 011.016 11.723 40.878 40.878 0 01-10.8 30.203c-11.993 11.808-30.731 13.031-52.661 13.031zm0 0M191.906 234.125a10.657 10.657 0 01-10.21-7.563 10.652 10.652 0 014.288-11.964 390.428 390.428 0 01153.828-55.004 10.659 10.659 0 112.641 21.148 374.17 374.17 0 00-144.64 51.594 10.649 10.649 0 01-5.907 1.789zm0 0M202.57 170.168a10.668 10.668 0 01-9.78-6.563c-1.642-3.949-.767-8.5 2.23-11.558 1.878-1.938 46.796-45.836 135.464-45.836 5.891 0 10.66 4.773 10.66 10.656 0 5.89-4.769 10.664-10.66 10.664-79.34 0-120.004 39.153-120.453 39.547a10.646 10.646 0 01-7.46 3.09zm0 0"/>
</svg>