<svg viewBox="-20 -39 661.331 661" xmlns="http://www.w3.org/2000/svg">
    <path d="M415.578 425.098a10.114 10.114 0 01-5.047-1.332c-38.12-21.48-83.543-44.989-134.984-69.868C30.809 235.77 1.949 77.242.852 14.57A15.262 15.262 0 0111.672-.363a15.46 15.46 0 0117.601 6.347c28.77 43.465 108.625 67.934 117.665 70.582a15.083 15.083 0 019.269 7.657c39.836 77.601 168.676 199.011 252.934 251.664 15.968 10.074 33.406 22.402 51.84 36.64a10.304 10.304 0 013.917 9.532 10.296 10.296 0 01-6.296 8.16 10.293 10.293 0 01-10.211-1.371C430.457 375 413.57 363.09 398.176 353.34c-77.457-48.426-212.79-169.336-259.246-257.672-18.176-5.55-81.64-26.89-116.54-65.18 6.032 66.84 46.946 201 262.07 304.864 51.88 25.058 97.708 48.765 136.192 70.468a10.308 10.308 0 014.903 11.594 10.308 10.308 0 01-9.977 7.684zm0 0"/>
    <path d="M221.145 274.969a10.205 10.205 0 01-5.618-1.668C142.184 225.51 91.047 169.648 63.56 107.254a10.3 10.3 0 0110.527-14.57 10.3 10.3 0 018.324 6.265c25.852 58.668 74.426 111.516 144.367 157.059a10.296 10.296 0 014.254 11.574 10.304 10.304 0 01-9.886 7.367zm0 0M398.805 274.969a10.296 10.296 0 01-9.887-7.367 10.294 10.294 0 014.25-11.57c69.945-45.567 118.496-98.415 144.371-157.083 2.36-5.094 8.363-7.36 13.5-5.101 5.14 2.261 7.516 8.222 5.352 13.406-27.496 62.394-78.625 118.258-151.97 166.047a10.214 10.214 0 01-5.616 1.668zm0 0M567.574 489.395a10.215 10.215 0 01-7.14-2.887c-12.746-12.262-46.598-44.309-85.676-76.66a10.303 10.303 0 01-3.653-9.688 10.285 10.285 0 016.606-7.96 10.282 10.282 0 0110.191 1.78c38.2 31.633 70.79 62.258 86.813 77.692a10.297 10.297 0 012.406 11.27 10.307 10.307 0 01-9.547 6.453zm0 0M540.578 510.52c-2.73 0-5.355-1.086-7.285-3.024a502.476 502.476 0 00-91.707-65.828c-4.89-2.922-6.484-9.254-3.559-14.145 2.918-4.886 9.254-6.48 14.141-3.558a520.011 520.011 0 0195.652 68.945 10.303 10.303 0 012.266 11.223 10.32 10.32 0 01-9.508 6.387zm0 0"/>
    <path d="M573.633 561.008c-25.61 0-46.367-20.762-46.367-46.371s20.757-46.367 46.367-46.367c25.605 0 46.367 20.757 46.367 46.367s-20.762 46.37-46.367 46.37zm0-72.13c-14.227 0-25.762 11.532-25.762 25.759 0 14.226 11.535 25.765 25.762 25.765 14.226 0 25.758-11.539 25.758-25.765a25.778 25.778 0 00-7.543-18.215 25.771 25.771 0 00-18.215-7.543zm0 0"/>
    <path d="M503.691 582.758a150.634 150.634 0 01-18.906-1.227c-42.875-5.383-79.125-34.304-93.894-74.906-13.551-33.496-6.938-71.773 17.074-98.777a92.897 92.897 0 019.656-9.27c12.809-10.719 22.547-18.848 30.2-25.59 1.835-1.593 3.687-3.09 5.566-4.644a56.848 56.848 0 0014.695-15.106 54.012 54.012 0 002.469-5.695 34.023 34.023 0 0115.816-20.293 25.188 25.188 0 0129.606 5.309 32.777 32.777 0 019.074 24.789c-1.36 20.246-20.606 38.703-37.09 52.55-2.988 2.493-6.031 4.926-9.05 7.336a142.847 142.847 0 00-23.802 21.957c-7.085 9.196-12.746 21.754-1.027 45.133 15.02 33.453 52.29 50.852 87.582 40.895 5.477-1.258 10.953 2.11 12.309 7.566 1.351 5.457-1.918 10.988-7.356 12.438-44.672 12.433-91.746-9.52-110.93-51.739-12.859-25.629-11.84-47.523 3.09-66.972a159.191 159.191 0 0127.254-25.473c2.914-2.328 5.844-4.668 8.73-7.066 7.126-5.95 28.848-24.02 29.755-38.059a12.233 12.233 0 00-3.688-9.48 4.668 4.668 0 00-5.285-.778c-2.465 1.223-3.73 4.211-5.777 9.387a74.235 74.235 0 01-3.508 7.902 73.698 73.698 0 01-19.793 21.297 239.51 239.51 0 00-5.047 4.192c-7.7 6.789-17.52 15.039-29.937 25.378a76.897 76.897 0 00-8.18 7.813c-18.793 21.352-23.852 51.516-13.047 77.824 12.117 33.371 41.89 57.164 77.117 61.61 30.852 3.836 53.883-2.473 68.422-18.786a10.297 10.297 0 019.863-3.437 10.317 10.317 0 017.801 6.96c1.14 3.56.262 7.462-2.293 10.192a85.873 85.873 0 01-67.469 26.77zm0 0M376.035 336.379a10.292 10.292 0 01-9.996-7.738 10.3 10.3 0 015.027-11.602c184.348-101.07 220.766-224.387 226.5-286.45-35.03 38.606-98.214 59.599-116.433 65.04-26.79 50.723-88.024 120.008-164.418 186.008a10.312 10.312 0 01-16.867-5.863 10.309 10.309 0 013.39-9.739c74.414-64.273 135.95-133.953 160.586-181.773a15.13 15.13 0 019.106-7.707c9.172-2.637 88.73-26.563 117.785-70.532a15.47 15.47 0 0117.582-6.398A15.198 15.198 0 01619.09 14.59c-1.028 57.703-26.258 204.367-238.113 320.523a10.167 10.167 0 01-4.942 1.266zM482.168 93.586v.101zm0 0M204.367 425.098a10.3 10.3 0 01-9.98-7.692 10.3 10.3 0 014.922-11.597c31.25-17.57 66.976-36.301 106.129-55.641a10.295 10.295 0 0110.328.61 10.296 10.296 0 014.593 9.265 10.292 10.292 0 01-5.765 8.59c-38.828 19.219-74.192 37.781-105.106 55.187a10.318 10.318 0 01-5.12 1.278zm0 0M165.309 390.992a10.305 10.305 0 01-6.301-18.465c18.433-14.238 35.87-26.566 51.804-36.62a572.507 572.507 0 0027.125-18.22c3-2.132 6.915-2.507 10.262-.984a10.318 10.318 0 015.98 8.395 10.295 10.295 0 01-4.28 9.375 602.252 602.252 0 01-28.087 18.867c-15.394 9.715-32.28 21.637-50.207 35.508a10.326 10.326 0 01-6.296 2.144zm0 0M52.375 489.395a10.307 10.307 0 01-9.547-6.454 10.297 10.297 0 012.406-11.27c12.88-12.362 47.13-44.82 86.82-77.69a10.304 10.304 0 1113.137 15.867c-39.152 32.433-72.949 64.418-85.664 76.66a10.29 10.29 0 01-7.152 2.887zm0 0M79.422 510.52a10.307 10.307 0 01-7.297-17.59 520.56 520.56 0 0195.652-68.965c4.883-2.93 11.215-1.344 14.145 3.539 2.93 4.883 1.34 11.215-3.54 14.14a502.013 502.013 0 00-91.702 65.833 10.306 10.306 0 01-7.258 3.043zm0 0"/>
    <path d="M46.367 561.008C20.757 561.008 0 540.246 0 514.637s20.758-46.367 46.367-46.367c25.606 0 46.371 20.757 46.371 46.367s-20.765 46.37-46.37 46.37zm0-72.13c-14.226 0-25.762 11.532-25.762 25.759 0 14.226 11.536 25.765 25.762 25.765 14.227 0 25.758-11.539 25.758-25.765 0-14.227-11.531-25.758-25.758-25.758zm0 0"/>
    <path d="M116.313 582.758a85.92 85.92 0 01-67.461-26.738 10.29 10.29 0 01-2.29-10.196 10.297 10.297 0 017.793-6.953c3.668-.73 7.446.586 9.872 3.438 14.546 16.296 37.546 22.605 68.425 18.78 35.223-4.448 64.993-28.234 77.106-61.605a74.763 74.763 0 00-12.961-77.746 73.591 73.591 0 00-7.664-7.386c-12.965-10.852-22.828-19.094-30.598-25.938a173.8 173.8 0 00-4.976-4.121 73.485 73.485 0 01-19.782-21.32 75.212 75.212 0 01-3.496-7.891c-2.062-5.152-3.312-8.168-5.8-9.398a4.627 4.627 0 00-5.262.785 12.233 12.233 0 00-3.7 9.48c.946 14.031 22.668 32.106 29.766 38.051 2.875 2.398 5.813 4.738 8.719 7.066a159.3 159.3 0 0127.254 25.465c14.96 19.43 15.98 41.324 3.09 66.973-19.215 42.168-66.262 64.074-110.903 51.644a10.298 10.298 0 01-7.68-7.109 10.318 10.318 0 012.508-10.168 10.309 10.309 0 0110.11-2.719c35.289 9.97 72.558-7.425 87.582-40.879 11.746-23.402 6.082-35.96-1.028-45.164a142.66 142.66 0 00-23.804-21.949c-3.02-2.406-6.059-4.84-9.047-7.332-16.578-13.808-35.777-32.262-37.09-52.555a32.788 32.788 0 019.063-24.789 25.189 25.189 0 0129.597-5.316 34.04 34.04 0 0115.824 20.309 54.982 54.982 0 002.48 5.699 56.775 56.775 0 0014.634 15.148 469.768 469.768 0 015.511 4.598c7.711 6.789 17.446 14.918 29.645 25.129 31.957 26.265 43.047 70.304 27.34 108.574-14.766 40.602-51.012 69.527-93.88 74.906a153.664 153.664 0 01-18.898 1.227zm0 0"/>
</svg>